<svg xmlns="http://www.w3.org/2000/svg" xmlns:xlink="http://www.w3.org/1999/xlink" width="60" zoomAndPan="magnify" viewBox="0 0 45 44.999999" height="60" preserveAspectRatio="xMidYMid meet" version="1.2"><defs/><g id="c097feea24"><g style="fill:#ffffff;fill-opacity:1;"><g transform="translate(4.188834, 24.293642)"><path style="stroke:none" d="M 2.40625 -5.5625 C 2.707031 -5.5625 3 -5.519531 3.28125 -5.4375 C 3.5625 -5.351562 3.769531 -5.269531 3.90625 -5.1875 L 4.109375 -5.046875 L 3.609375 -4.046875 C 3.566406 -4.078125 3.507812 -4.113281 3.4375 -4.15625 C 3.363281 -4.195312 3.226562 -4.253906 3.03125 -4.328125 C 2.84375 -4.398438 2.664062 -4.4375 2.5 -4.4375 C 2.289062 -4.4375 2.128906 -4.390625 2.015625 -4.296875 C 1.898438 -4.210938 1.84375 -4.09375 1.84375 -3.9375 C 1.84375 -3.863281 1.867188 -3.796875 1.921875 -3.734375 C 1.972656 -3.671875 2.0625 -3.601562 2.1875 -3.53125 C 2.320312 -3.457031 2.4375 -3.394531 2.53125 -3.34375 C 2.632812 -3.300781 2.785156 -3.238281 2.984375 -3.15625 C 3.335938 -3 3.640625 -2.789062 3.890625 -2.53125 C 4.140625 -2.28125 4.265625 -1.988281 4.265625 -1.65625 C 4.265625 -1.34375 4.207031 -1.066406 4.09375 -0.828125 C 3.976562 -0.597656 3.820312 -0.414062 3.625 -0.28125 C 3.4375 -0.15625 3.222656 -0.0625 2.984375 0 C 2.742188 0.0625 2.484375 0.09375 2.203125 0.09375 C 1.960938 0.09375 1.726562 0.0664062 1.5 0.015625 C 1.269531 -0.0234375 1.078125 -0.0820312 0.921875 -0.15625 C 0.773438 -0.226562 0.640625 -0.300781 0.515625 -0.375 C 0.390625 -0.445312 0.296875 -0.503906 0.234375 -0.546875 L 0.15625 -0.625 L 0.78125 -1.671875 C 0.832031 -1.628906 0.90625 -1.570312 1 -1.5 C 1.09375 -1.425781 1.253906 -1.332031 1.484375 -1.21875 C 1.722656 -1.101562 1.929688 -1.046875 2.109375 -1.046875 C 2.640625 -1.046875 2.90625 -1.226562 2.90625 -1.59375 C 2.90625 -1.664062 2.882812 -1.734375 2.84375 -1.796875 C 2.8125 -1.859375 2.742188 -1.921875 2.640625 -1.984375 C 2.546875 -2.054688 2.460938 -2.109375 2.390625 -2.140625 C 2.316406 -2.179688 2.195312 -2.238281 2.03125 -2.3125 C 1.863281 -2.394531 1.742188 -2.453125 1.671875 -2.484375 C 1.335938 -2.648438 1.078125 -2.851562 0.890625 -3.09375 C 0.710938 -3.34375 0.625 -3.609375 0.625 -3.890625 C 0.625 -4.378906 0.804688 -4.78125 1.171875 -5.09375 C 1.535156 -5.40625 1.945312 -5.5625 2.40625 -5.5625 Z M 2.40625 -5.5625 "/></g></g><g style="fill:#ffffff;fill-opacity:1;"><g transform="translate(8.014213, 24.293642)"><path style="stroke:none" d="M 0.59375 -3.40625 L 0.59375 -4.65625 L 1.765625 -4.65625 L 1.765625 -3.40625 L 2.484375 -3.40625 L 2.484375 -2.5 L 1.765625 -2.5 L 1.765625 -1.421875 C 1.765625 -1.109375 1.851562 -0.953125 2.03125 -0.953125 C 2.070312 -0.953125 2.117188 -0.957031 2.171875 -0.96875 C 2.222656 -0.988281 2.257812 -1.007812 2.28125 -1.03125 L 2.328125 -1.0625 L 2.609375 -0.109375 C 2.359375 0.0234375 2.070312 0.09375 1.75 0.09375 C 1.53125 0.09375 1.34375 0.0546875 1.1875 -0.015625 C 1.03125 -0.0859375 0.910156 -0.1875 0.828125 -0.3125 C 0.742188 -0.445312 0.679688 -0.585938 0.640625 -0.734375 C 0.609375 -0.878906 0.59375 -1.035156 0.59375 -1.203125 L 0.59375 -2.5 L 0.109375 -2.5 L 0.109375 -3.40625 Z M 0.59375 -3.40625 "/></g></g><g style="fill:#ffffff;fill-opacity:1;"><g transform="translate(10.006234, 24.293642)"><path style="stroke:none" d="M 0.390625 0 L 0.390625 -3.40625 L 1.5625 -3.40625 L 1.5625 -2.90625 L 1.578125 -2.90625 C 1.585938 -2.925781 1.601562 -2.945312 1.625 -2.96875 C 1.644531 -3 1.6875 -3.046875 1.75 -3.109375 C 1.820312 -3.179688 1.894531 -3.242188 1.96875 -3.296875 C 2.039062 -3.347656 2.132812 -3.394531 2.25 -3.4375 C 2.375 -3.476562 2.5 -3.5 2.625 -3.5 C 2.75 -3.5 2.875 -3.476562 3 -3.4375 C 3.125 -3.40625 3.210938 -3.375 3.265625 -3.34375 L 3.359375 -3.28125 L 2.875 -2.296875 C 2.726562 -2.421875 2.523438 -2.484375 2.265625 -2.484375 C 2.117188 -2.484375 1.992188 -2.453125 1.890625 -2.390625 C 1.796875 -2.328125 1.726562 -2.25 1.6875 -2.15625 C 1.644531 -2.070312 1.613281 -2 1.59375 -1.9375 C 1.570312 -1.875 1.5625 -1.820312 1.5625 -1.78125 L 1.5625 0 Z M 0.390625 0 "/></g></g><g style="fill:#ffffff;fill-opacity:1;"><g transform="translate(12.679973, 24.293642)"><path style="stroke:none" d="M 0.515625 -5.296875 C 0.648438 -5.429688 0.8125 -5.5 1 -5.5 C 1.1875 -5.5 1.347656 -5.429688 1.484375 -5.296875 C 1.628906 -5.160156 1.703125 -4.992188 1.703125 -4.796875 C 1.703125 -4.609375 1.628906 -4.445312 1.484375 -4.3125 C 1.347656 -4.175781 1.1875 -4.109375 1 -4.109375 C 0.8125 -4.109375 0.648438 -4.175781 0.515625 -4.3125 C 0.378906 -4.445312 0.3125 -4.609375 0.3125 -4.796875 C 0.3125 -4.992188 0.378906 -5.160156 0.515625 -5.296875 Z M 0.390625 -3.40625 L 0.390625 0 L 1.5625 0 L 1.5625 -3.40625 Z M 0.390625 -3.40625 "/></g></g><g style="fill:#ffffff;fill-opacity:1;"><g transform="translate(14.056464, 24.293642)"><path style="stroke:none" d="M 0.625 -0.421875 C 0.3125 -0.765625 0.15625 -1.1875 0.15625 -1.6875 C 0.15625 -2.195312 0.3125 -2.625 0.625 -2.96875 C 0.945312 -3.320312 1.351562 -3.5 1.84375 -3.5 C 2.289062 -3.5 2.660156 -3.359375 2.953125 -3.078125 L 2.953125 -5.703125 L 4.125 -5.703125 L 4.125 0 L 2.96875 0 L 2.96875 -0.390625 L 2.953125 -0.390625 C 2.660156 -0.0664062 2.289062 0.09375 1.84375 0.09375 C 1.351562 0.09375 0.945312 -0.078125 0.625 -0.421875 Z M 1.625 -2.265625 C 1.46875 -2.117188 1.390625 -1.925781 1.390625 -1.6875 C 1.390625 -1.457031 1.460938 -1.269531 1.609375 -1.125 C 1.753906 -0.976562 1.945312 -0.90625 2.1875 -0.90625 C 2.414062 -0.90625 2.601562 -0.976562 2.75 -1.125 C 2.90625 -1.269531 2.984375 -1.460938 2.984375 -1.703125 C 2.984375 -1.929688 2.90625 -2.117188 2.75 -2.265625 C 2.601562 -2.421875 2.414062 -2.5 2.1875 -2.5 C 1.96875 -2.5 1.78125 -2.421875 1.625 -2.265625 Z M 1.625 -2.265625 "/></g></g><g style="fill:#ffffff;fill-opacity:1;"><g transform="translate(17.954647, 24.293642)"><path style="stroke:none" d="M 3.828125 -1.53125 L 1.375 -1.53125 C 1.375 -1.289062 1.445312 -1.113281 1.59375 -1 C 1.75 -0.882812 1.921875 -0.828125 2.109375 -0.828125 C 2.296875 -0.828125 2.441406 -0.851562 2.546875 -0.90625 C 2.660156 -0.957031 2.789062 -1.0625 2.9375 -1.21875 L 3.78125 -0.78125 C 3.425781 -0.195312 2.835938 0.09375 2.015625 0.09375 C 1.503906 0.09375 1.066406 -0.078125 0.703125 -0.421875 C 0.335938 -0.773438 0.15625 -1.195312 0.15625 -1.6875 C 0.15625 -2.1875 0.335938 -2.613281 0.703125 -2.96875 C 1.066406 -3.320312 1.503906 -3.5 2.015625 -3.5 C 2.554688 -3.5 2.992188 -3.34375 3.328125 -3.03125 C 3.671875 -2.71875 3.84375 -2.273438 3.84375 -1.703125 C 3.84375 -1.617188 3.835938 -1.5625 3.828125 -1.53125 Z M 1.40625 -2.1875 L 2.703125 -2.1875 C 2.671875 -2.363281 2.597656 -2.5 2.484375 -2.59375 C 2.367188 -2.6875 2.222656 -2.734375 2.046875 -2.734375 C 1.859375 -2.734375 1.707031 -2.679688 1.59375 -2.578125 C 1.476562 -2.484375 1.414062 -2.351562 1.40625 -2.1875 Z M 1.40625 -2.1875 "/></g></g><g style="fill:#ffffff;fill-opacity:1;"><g transform="translate(21.32334, 24.293642)"><path style="stroke:none" d=""/></g></g><g style="fill:#ffffff;fill-opacity:1;"><g transform="translate(22.507891, 24.293642)"><path style="stroke:none" d="M 2.40625 -5.5625 C 2.707031 -5.5625 3 -5.519531 3.28125 -5.4375 C 3.5625 -5.351562 3.769531 -5.269531 3.90625 -5.1875 L 4.109375 -5.046875 L 3.609375 -4.046875 C 3.566406 -4.078125 3.507812 -4.113281 3.4375 -4.15625 C 3.363281 -4.195312 3.226562 -4.253906 3.03125 -4.328125 C 2.84375 -4.398438 2.664062 -4.4375 2.5 -4.4375 C 2.289062 -4.4375 2.128906 -4.390625 2.015625 -4.296875 C 1.898438 -4.210938 1.84375 -4.09375 1.84375 -3.9375 C 1.84375 -3.863281 1.867188 -3.796875 1.921875 -3.734375 C 1.972656 -3.671875 2.0625 -3.601562 2.1875 -3.53125 C 2.320312 -3.457031 2.4375 -3.394531 2.53125 -3.34375 C 2.632812 -3.300781 2.785156 -3.238281 2.984375 -3.15625 C 3.335938 -3 3.640625 -2.789062 3.890625 -2.53125 C 4.140625 -2.28125 4.265625 -1.988281 4.265625 -1.65625 C 4.265625 -1.34375 4.207031 -1.066406 4.09375 -0.828125 C 3.976562 -0.597656 3.820312 -0.414062 3.625 -0.28125 C 3.4375 -0.15625 3.222656 -0.0625 2.984375 0 C 2.742188 0.0625 2.484375 0.09375 2.203125 0.09375 C 1.960938 0.09375 1.726562 0.0664062 1.5 0.015625 C 1.269531 -0.0234375 1.078125 -0.0820312 0.921875 -0.15625 C 0.773438 -0.226562 0.640625 -0.300781 0.515625 -0.375 C 0.390625 -0.445312 0.296875 -0.503906 0.234375 -0.546875 L 0.15625 -0.625 L 0.78125 -1.671875 C 0.832031 -1.628906 0.90625 -1.570312 1 -1.5 C 1.09375 -1.425781 1.253906 -1.332031 1.484375 -1.21875 C 1.722656 -1.101562 1.929688 -1.046875 2.109375 -1.046875 C 2.640625 -1.046875 2.90625 -1.226562 2.90625 -1.59375 C 2.90625 -1.664062 2.882812 -1.734375 2.84375 -1.796875 C 2.8125 -1.859375 2.742188 -1.921875 2.640625 -1.984375 C 2.546875 -2.054688 2.460938 -2.109375 2.390625 -2.140625 C 2.316406 -2.179688 2.195312 -2.238281 2.03125 -2.3125 C 1.863281 -2.394531 1.742188 -2.453125 1.671875 -2.484375 C 1.335938 -2.648438 1.078125 -2.851562 0.890625 -3.09375 C 0.710938 -3.34375 0.625 -3.609375 0.625 -3.890625 C 0.625 -4.378906 0.804688 -4.78125 1.171875 -5.09375 C 1.535156 -5.40625 1.945312 -5.5625 2.40625 -5.5625 Z M 2.40625 -5.5625 "/></g></g><g style="fill:#ffffff;fill-opacity:1;"><g transform="translate(26.333269, 24.293642)"><path style="stroke:none" d="M 0.59375 -3.40625 L 0.59375 -4.65625 L 1.765625 -4.65625 L 1.765625 -3.40625 L 2.484375 -3.40625 L 2.484375 -2.5 L 1.765625 -2.5 L 1.765625 -1.421875 C 1.765625 -1.109375 1.851562 -0.953125 2.03125 -0.953125 C 2.070312 -0.953125 2.117188 -0.957031 2.171875 -0.96875 C 2.222656 -0.988281 2.257812 -1.007812 2.28125 -1.03125 L 2.328125 -1.0625 L 2.609375 -0.109375 C 2.359375 0.0234375 2.070312 0.09375 1.75 0.09375 C 1.53125 0.09375 1.34375 0.0546875 1.1875 -0.015625 C 1.03125 -0.0859375 0.910156 -0.1875 0.828125 -0.3125 C 0.742188 -0.445312 0.679688 -0.585938 0.640625 -0.734375 C 0.609375 -0.878906 0.59375 -1.035156 0.59375 -1.203125 L 0.59375 -2.5 L 0.109375 -2.5 L 0.109375 -3.40625 Z M 0.59375 -3.40625 "/></g></g><g style="fill:#ffffff;fill-opacity:1;"><g transform="translate(28.32529, 24.293642)"><path style="stroke:none" d="M 0.390625 0 L 0.390625 -3.40625 L 1.5625 -3.40625 L 1.5625 -2.90625 L 1.578125 -2.90625 C 1.585938 -2.925781 1.601562 -2.945312 1.625 -2.96875 C 1.644531 -3 1.6875 -3.046875 1.75 -3.109375 C 1.820312 -3.179688 1.894531 -3.242188 1.96875 -3.296875 C 2.039062 -3.347656 2.132812 -3.394531 2.25 -3.4375 C 2.375 -3.476562 2.5 -3.5 2.625 -3.5 C 2.75 -3.5 2.875 -3.476562 3 -3.4375 C 3.125 -3.40625 3.210938 -3.375 3.265625 -3.34375 L 3.359375 -3.28125 L 2.875 -2.296875 C 2.726562 -2.421875 2.523438 -2.484375 2.265625 -2.484375 C 2.117188 -2.484375 1.992188 -2.453125 1.890625 -2.390625 C 1.796875 -2.328125 1.726562 -2.25 1.6875 -2.15625 C 1.644531 -2.070312 1.613281 -2 1.59375 -1.9375 C 1.570312 -1.875 1.5625 -1.820312 1.5625 -1.78125 L 1.5625 0 Z M 0.390625 0 "/></g></g><g style="fill:#ffffff;fill-opacity:1;"><g transform="translate(30.999031, 24.293642)"><path style="stroke:none" d="M 0.71875 -0.40625 C 0.34375 -0.738281 0.15625 -1.164062 0.15625 -1.6875 C 0.15625 -2.21875 0.347656 -2.648438 0.734375 -2.984375 C 1.128906 -3.328125 1.617188 -3.5 2.203125 -3.5 C 2.765625 -3.5 3.242188 -3.328125 3.640625 -2.984375 C 4.035156 -2.648438 4.234375 -2.222656 4.234375 -1.703125 C 4.234375 -1.179688 4.039062 -0.75 3.65625 -0.40625 C 3.269531 -0.0703125 2.785156 0.09375 2.203125 0.09375 C 1.585938 0.09375 1.09375 -0.0703125 0.71875 -0.40625 Z M 1.625 -2.265625 C 1.46875 -2.117188 1.390625 -1.925781 1.390625 -1.6875 C 1.390625 -1.457031 1.460938 -1.269531 1.609375 -1.125 C 1.753906 -0.976562 1.945312 -0.90625 2.1875 -0.90625 C 2.414062 -0.90625 2.601562 -0.976562 2.75 -1.125 C 2.90625 -1.269531 2.984375 -1.460938 2.984375 -1.703125 C 2.984375 -1.929688 2.90625 -2.117188 2.75 -2.265625 C 2.601562 -2.421875 2.414062 -2.5 2.1875 -2.5 C 1.96875 -2.5 1.78125 -2.421875 1.625 -2.265625 Z M 1.625 -2.265625 "/></g></g><g style="fill:#ffffff;fill-opacity:1;"><g transform="translate(34.751604, 24.293642)"><path style="stroke:none" d="M 0.390625 0 L 0.390625 -3.40625 L 1.5625 -3.40625 L 1.5625 -2.90625 L 1.578125 -2.90625 C 1.585938 -2.925781 1.601562 -2.945312 1.625 -2.96875 C 1.644531 -3 1.6875 -3.046875 1.75 -3.109375 C 1.820312 -3.179688 1.894531 -3.242188 1.96875 -3.296875 C 2.039062 -3.347656 2.132812 -3.394531 2.25 -3.4375 C 2.375 -3.476562 2.5 -3.5 2.625 -3.5 C 2.75 -3.5 2.875 -3.476562 3 -3.4375 C 3.125 -3.40625 3.210938 -3.375 3.265625 -3.34375 L 3.359375 -3.28125 L 2.875 -2.296875 C 2.726562 -2.421875 2.523438 -2.484375 2.265625 -2.484375 C 2.117188 -2.484375 1.992188 -2.453125 1.890625 -2.390625 C 1.796875 -2.328125 1.726562 -2.25 1.6875 -2.15625 C 1.644531 -2.070312 1.613281 -2 1.59375 -1.9375 C 1.570312 -1.875 1.5625 -1.820312 1.5625 -1.78125 L 1.5625 0 Z M 0.390625 0 "/></g></g><g style="fill:#ffffff;fill-opacity:1;"><g transform="translate(37.425341, 24.293642)"><path style="stroke:none" d="M 3.828125 -1.53125 L 1.375 -1.53125 C 1.375 -1.289062 1.445312 -1.113281 1.59375 -1 C 1.75 -0.882812 1.921875 -0.828125 2.109375 -0.828125 C 2.296875 -0.828125 2.441406 -0.851562 2.546875 -0.90625 C 2.660156 -0.957031 2.789062 -1.0625 2.9375 -1.21875 L 3.78125 -0.78125 C 3.425781 -0.195312 2.835938 0.09375 2.015625 0.09375 C 1.503906 0.09375 1.066406 -0.078125 0.703125 -0.421875 C 0.335938 -0.773438 0.15625 -1.195312 0.15625 -1.6875 C 0.15625 -2.1875 0.335938 -2.613281 0.703125 -2.96875 C 1.066406 -3.320312 1.503906 -3.5 2.015625 -3.5 C 2.554688 -3.5 2.992188 -3.34375 3.328125 -3.03125 C 3.671875 -2.71875 3.84375 -2.273438 3.84375 -1.703125 C 3.84375 -1.617188 3.835938 -1.5625 3.828125 -1.53125 Z M 1.40625 -2.1875 L 2.703125 -2.1875 C 2.671875 -2.363281 2.597656 -2.5 2.484375 -2.59375 C 2.367188 -2.6875 2.222656 -2.734375 2.046875 -2.734375 C 1.859375 -2.734375 1.707031 -2.679688 1.59375 -2.578125 C 1.476562 -2.484375 1.414062 -2.351562 1.40625 -2.1875 Z M 1.40625 -2.1875 "/></g></g><g style="fill:#ffffff;fill-opacity:1;"><g transform="translate(40.794933, 24.293642)"><path style="stroke:none" d=""/></g></g></g></svg>