<svg xmlns="http://www.w3.org/2000/svg" xmlns:xlink="http://www.w3.org/1999/xlink" width="60" zoomAndPan="magnify" viewBox="0 0 45 44.999999" height="60" preserveAspectRatio="xMidYMid meet" version="1.0"><defs><g/><clipPath id="1d4d763c26"><path d="M 4 4 L 32 4 L 32 41 L 4 41 Z M 4 4 " clip-rule="nonzero"/></clipPath><clipPath id="a9ea652d10"><path d="M -5.175781 15.453125 L 17.851562 -0.03125 L 36.265625 27.355469 L 13.238281 42.839844 Z M -5.175781 15.453125 " clip-rule="nonzero"/></clipPath><clipPath id="07979e28ad"><path d="M -5.175781 15.453125 L 17.851562 -0.03125 L 36.265625 27.355469 L 13.238281 42.839844 Z M -5.175781 15.453125 " clip-rule="nonzero"/></clipPath><clipPath id="9c49b07c4c"><path d="M 13 19 L 20 19 L 20 26 L 13 26 Z M 13 19 " clip-rule="nonzero"/></clipPath><clipPath id="8f209b7239"><path d="M -5.175781 15.453125 L 17.851562 -0.03125 L 36.265625 27.355469 L 13.238281 42.839844 Z M -5.175781 15.453125 " clip-rule="nonzero"/></clipPath><clipPath id="7a09c11774"><path d="M -5.175781 15.453125 L 17.851562 -0.03125 L 36.265625 27.355469 L 13.238281 42.839844 Z M -5.175781 15.453125 " clip-rule="nonzero"/></clipPath><clipPath id="94380944e6"><path d="M 16 26 L 18 26 L 18 28 L 16 28 Z M 16 26 " clip-rule="nonzero"/></clipPath><clipPath id="b551515027"><path d="M -5.175781 15.453125 L 17.851562 -0.03125 L 36.265625 27.355469 L 13.238281 42.839844 Z M -5.175781 15.453125 " clip-rule="nonzero"/></clipPath><clipPath id="850436196d"><path d="M -5.175781 15.453125 L 17.851562 -0.03125 L 36.265625 27.355469 L 13.238281 42.839844 Z M -5.175781 15.453125 " clip-rule="nonzero"/></clipPath><clipPath id="b9f15438dd"><path d="M 20 20 L 22 20 L 22 22 L 20 22 Z M 20 20 " clip-rule="nonzero"/></clipPath><clipPath id="a41d9e6831"><path d="M -5.175781 15.453125 L 17.851562 -0.03125 L 36.265625 27.355469 L 13.238281 42.839844 Z M -5.175781 15.453125 " clip-rule="nonzero"/></clipPath><clipPath id="e42acb39da"><path d="M -5.175781 15.453125 L 17.851562 -0.03125 L 36.265625 27.355469 L 13.238281 42.839844 Z M -5.175781 15.453125 " clip-rule="nonzero"/></clipPath></defs><g clip-path="url(#1d4d763c26)"><g clip-path="url(#a9ea652d10)"><g clip-path="url(#07979e28ad)"><path fill="#030247" d="M 13.671875 29.984375 C 13.207031 29.546875 13.140625 28.828125 13.523438 28.320312 L 14.742188 26.6875 L 13.910156 26.070312 C 11.972656 24.628906 11.566406 21.875 13.007812 19.9375 C 14.453125 17.996094 17.207031 17.589844 19.144531 19.035156 L 19.972656 19.648438 L 21.191406 18.015625 C 21.570312 17.5 22.277344 17.359375 22.824219 17.679688 L 31.617188 22.785156 L 24.230469 9.636719 C 23.800781 8.875 22.867188 8.554688 22.0625 8.890625 L 19.5 9.972656 L 18.949219 8.671875 C 17.660156 5.617188 14.136719 4.179688 11.078125 5.464844 C 8.027344 6.753906 6.589844 10.277344 7.871094 13.332031 L 8.421875 14.636719 L 5.859375 15.71875 C 5.050781 16.054688 4.625 16.945312 4.875 17.785156 L 11.132812 39.113281 C 11.433594 40.132812 12.554688 40.664062 13.535156 40.253906 L 21.199219 37.03125 Z M 20.496094 12.335938 C 20.660156 12.726562 20.476562 13.171875 20.089844 13.335938 C 19.699219 13.5 19.25 13.316406 19.085938 12.929688 C 18.921875 12.539062 19.105469 12.089844 19.496094 11.925781 C 19.878906 11.765625 20.332031 11.945312 20.496094 12.335938 Z M 9.296875 12.738281 C 8.34375 10.464844 9.410156 7.84375 11.683594 6.882812 C 13.957031 5.917969 16.578125 6.996094 17.542969 9.269531 L 18.089844 10.570312 L 9.847656 14.042969 Z M 9.835938 15.992188 C 10.226562 15.832031 10.671875 16.011719 10.835938 16.402344 C 11 16.792969 10.816406 17.238281 10.429688 17.402344 C 10.039062 17.566406 9.589844 17.382812 9.425781 16.996094 C 9.257812 16.609375 9.441406 16.160156 9.835938 15.992188 Z M 9.835938 15.992188 " fill-opacity="1" fill-rule="nonzero"/></g></g></g><g clip-path="url(#9c49b07c4c)"><g clip-path="url(#8f209b7239)"><g clip-path="url(#7a09c11774)"><path fill="#030247" d="M 18.476562 19.929688 C 17.035156 18.855469 14.980469 19.15625 13.90625 20.605469 C 12.832031 22.046875 13.128906 24.101562 14.578125 25.175781 L 15.410156 25.789062 L 19.308594 20.550781 Z M 18.476562 19.929688 " fill-opacity="1" fill-rule="nonzero"/></g></g></g><g clip-path="url(#94380944e6)"><g clip-path="url(#b551515027)"><g clip-path="url(#850436196d)"><path fill="#030247" d="M 16.125 27.027344 C 15.941406 27.269531 15.992188 27.625 16.246094 27.808594 C 16.488281 27.992188 16.84375 27.945312 17.027344 27.691406 C 17.210938 27.445312 17.164062 27.09375 16.910156 26.90625 C 16.664062 26.722656 16.3125 26.773438 16.125 27.027344 Z M 16.125 27.027344 " fill-opacity="1" fill-rule="nonzero"/></g></g></g><g clip-path="url(#b9f15438dd)"><g clip-path="url(#a41d9e6831)"><g clip-path="url(#e42acb39da)"><path fill="#030247" d="M 21.59375 21.550781 C 21.777344 21.304688 21.726562 20.953125 21.472656 20.765625 C 21.230469 20.582031 20.875 20.632812 20.691406 20.882812 C 20.503906 21.136719 20.554688 21.480469 20.808594 21.667969 C 21.058594 21.847656 21.410156 21.800781 21.59375 21.550781 Z M 21.59375 21.550781 " fill-opacity="1" fill-rule="nonzero"/></g></g></g><g fill="#fefefe" fill-opacity="1"><g transform="translate(19.538515, 25.702308)"><g><path d="M 1.828125 -0.734375 C 1.828125 -0.578125 1.785156 -0.441406 1.703125 -0.328125 C 1.628906 -0.210938 1.519531 -0.125 1.375 -0.0625 C 1.238281 0 1.078125 0.03125 0.890625 0.03125 C 0.722656 0.03125 0.585938 0.0195312 0.484375 0 C 0.378906 -0.0195312 0.265625 -0.0625 0.140625 -0.125 L 0.140625 -0.703125 C 0.265625 -0.628906 0.394531 -0.578125 0.53125 -0.546875 C 0.664062 -0.515625 0.789062 -0.5 0.90625 -0.5 C 1 -0.5 1.066406 -0.515625 1.109375 -0.546875 C 1.148438 -0.578125 1.171875 -0.617188 1.171875 -0.671875 C 1.171875 -0.703125 1.160156 -0.726562 1.140625 -0.75 C 1.128906 -0.78125 1.101562 -0.804688 1.0625 -0.828125 C 1.019531 -0.859375 0.914062 -0.910156 0.75 -0.984375 C 0.59375 -1.054688 0.472656 -1.125 0.390625 -1.1875 C 0.316406 -1.257812 0.257812 -1.335938 0.21875 -1.421875 C 0.175781 -1.503906 0.15625 -1.609375 0.15625 -1.734375 C 0.15625 -1.953125 0.234375 -2.125 0.390625 -2.25 C 0.554688 -2.375 0.78125 -2.4375 1.0625 -2.4375 C 1.3125 -2.4375 1.566406 -2.378906 1.828125 -2.265625 L 1.625 -1.765625 C 1.40625 -1.867188 1.210938 -1.921875 1.046875 -1.921875 C 0.960938 -1.921875 0.898438 -1.90625 0.859375 -1.875 C 0.828125 -1.84375 0.8125 -1.804688 0.8125 -1.765625 C 0.8125 -1.710938 0.832031 -1.664062 0.875 -1.625 C 0.925781 -1.59375 1.0625 -1.53125 1.28125 -1.4375 C 1.488281 -1.34375 1.628906 -1.238281 1.703125 -1.125 C 1.785156 -1.019531 1.828125 -0.890625 1.828125 -0.734375 Z M 1.828125 -0.734375 "/></g></g></g><g fill="#fefefe" fill-opacity="1"><g transform="translate(21.473973, 25.702308)"><g><path d="M 1.3125 0 L 0.671875 0 L 0.671875 -1.875 L 0.078125 -1.875 L 0.078125 -2.390625 L 1.90625 -2.390625 L 1.90625 -1.875 L 1.3125 -1.875 Z M 1.3125 0 "/></g></g></g><g fill="#fefefe" fill-opacity="1"><g transform="translate(23.45528, 25.702308)"><g><path d="M 0.90625 -0.875 L 0.90625 0 L 0.265625 0 L 0.265625 -2.390625 L 1.046875 -2.390625 C 1.691406 -2.390625 2.015625 -2.15625 2.015625 -1.6875 C 2.015625 -1.40625 1.878906 -1.191406 1.609375 -1.046875 L 2.3125 0 L 1.578125 0 L 1.078125 -0.875 Z M 0.90625 -1.359375 L 1.03125 -1.359375 C 1.257812 -1.359375 1.375 -1.457031 1.375 -1.65625 C 1.375 -1.820312 1.257812 -1.90625 1.03125 -1.90625 L 0.90625 -1.90625 Z M 0.90625 -1.359375 "/></g></g></g><g fill="#fefefe" fill-opacity="1"><g transform="translate(25.724776, 25.702308)"><g><path d="M 0.265625 0 L 0.265625 -2.390625 L 0.90625 -2.390625 L 0.90625 0 Z M 0.265625 0 "/></g></g></g><g fill="#fefefe" fill-opacity="1"><g transform="translate(26.892274, 25.702308)"><g><path d="M 2.296875 -1.25 C 2.296875 -0.851562 2.1875 -0.546875 1.96875 -0.328125 C 1.75 -0.109375 1.4375 0 1.03125 0 L 0.265625 0 L 0.265625 -2.390625 L 1.09375 -2.390625 C 1.476562 -2.390625 1.773438 -2.289062 1.984375 -2.09375 C 2.191406 -1.90625 2.296875 -1.625 2.296875 -1.25 Z M 1.625 -1.234375 C 1.625 -1.453125 1.578125 -1.613281 1.484375 -1.71875 C 1.398438 -1.820312 1.269531 -1.875 1.09375 -1.875 L 0.90625 -1.875 L 0.90625 -0.53125 L 1.046875 -0.53125 C 1.242188 -0.53125 1.390625 -0.585938 1.484375 -0.703125 C 1.578125 -0.816406 1.625 -0.992188 1.625 -1.234375 Z M 1.625 -1.234375 "/></g></g></g><g fill="#fefefe" fill-opacity="1"><g transform="translate(29.353351, 25.702308)"><g><path d="M 1.6875 0 L 0.265625 0 L 0.265625 -2.390625 L 1.6875 -2.390625 L 1.6875 -1.875 L 0.90625 -1.875 L 0.90625 -1.5 L 1.625 -1.5 L 1.625 -0.984375 L 0.90625 -0.984375 L 0.90625 -0.53125 L 1.6875 -0.53125 Z M 1.6875 0 "/></g></g></g><g fill="#fefefe" fill-opacity="1"><g transform="translate(31.193838, 25.702308)"><g/></g></g><g fill="#fefefe" fill-opacity="1"><g transform="translate(32.064958, 25.702308)"><g><path d="M 1.828125 -0.734375 C 1.828125 -0.578125 1.785156 -0.441406 1.703125 -0.328125 C 1.628906 -0.210938 1.519531 -0.125 1.375 -0.0625 C 1.238281 0 1.078125 0.03125 0.890625 0.03125 C 0.722656 0.03125 0.585938 0.0195312 0.484375 0 C 0.378906 -0.0195312 0.265625 -0.0625 0.140625 -0.125 L 0.140625 -0.703125 C 0.265625 -0.628906 0.394531 -0.578125 0.53125 -0.546875 C 0.664062 -0.515625 0.789062 -0.5 0.90625 -0.5 C 1 -0.5 1.066406 -0.515625 1.109375 -0.546875 C 1.148438 -0.578125 1.171875 -0.617188 1.171875 -0.671875 C 1.171875 -0.703125 1.160156 -0.726562 1.140625 -0.75 C 1.128906 -0.78125 1.101562 -0.804688 1.0625 -0.828125 C 1.019531 -0.859375 0.914062 -0.910156 0.75 -0.984375 C 0.59375 -1.054688 0.472656 -1.125 0.390625 -1.1875 C 0.316406 -1.257812 0.257812 -1.335938 0.21875 -1.421875 C 0.175781 -1.503906 0.15625 -1.609375 0.15625 -1.734375 C 0.15625 -1.953125 0.234375 -2.125 0.390625 -2.25 C 0.554688 -2.375 0.78125 -2.4375 1.0625 -2.4375 C 1.3125 -2.4375 1.566406 -2.378906 1.828125 -2.265625 L 1.625 -1.765625 C 1.40625 -1.867188 1.210938 -1.921875 1.046875 -1.921875 C 0.960938 -1.921875 0.898438 -1.90625 0.859375 -1.875 C 0.828125 -1.84375 0.8125 -1.804688 0.8125 -1.765625 C 0.8125 -1.710938 0.832031 -1.664062 0.875 -1.625 C 0.925781 -1.59375 1.0625 -1.53125 1.28125 -1.4375 C 1.488281 -1.34375 1.628906 -1.238281 1.703125 -1.125 C 1.785156 -1.019531 1.828125 -0.890625 1.828125 -0.734375 Z M 1.828125 -0.734375 "/></g></g></g><g fill="#fefefe" fill-opacity="1"><g transform="translate(34.000416, 25.702308)"><g><path d="M 1.3125 0 L 0.671875 0 L 0.671875 -1.875 L 0.078125 -1.875 L 0.078125 -2.390625 L 1.90625 -2.390625 L 1.90625 -1.875 L 1.3125 -1.875 Z M 1.3125 0 "/></g></g></g><g fill="#fefefe" fill-opacity="1"><g transform="translate(35.981723, 25.702308)"><g><path d="M 2.5 -1.203125 C 2.5 -0.796875 2.398438 -0.488281 2.203125 -0.28125 C 2.003906 -0.0703125 1.71875 0.03125 1.34375 0.03125 C 0.957031 0.03125 0.664062 -0.0703125 0.46875 -0.28125 C 0.269531 -0.488281 0.171875 -0.796875 0.171875 -1.203125 C 0.171875 -1.597656 0.269531 -1.898438 0.46875 -2.109375 C 0.664062 -2.328125 0.957031 -2.4375 1.34375 -2.4375 C 1.71875 -2.4375 2.003906 -2.332031 2.203125 -2.125 C 2.398438 -1.914062 2.5 -1.609375 2.5 -1.203125 Z M 0.859375 -1.203125 C 0.859375 -0.734375 1.019531 -0.5 1.34375 -0.5 C 1.5 -0.5 1.617188 -0.554688 1.703125 -0.671875 C 1.785156 -0.785156 1.828125 -0.960938 1.828125 -1.203125 C 1.828125 -1.441406 1.785156 -1.617188 1.703125 -1.734375 C 1.617188 -1.847656 1.5 -1.90625 1.34375 -1.90625 C 1.019531 -1.90625 0.859375 -1.671875 0.859375 -1.203125 Z M 0.859375 -1.203125 "/></g></g></g><g fill="#fefefe" fill-opacity="1"><g transform="translate(38.654031, 25.702308)"><g><path d="M 0.90625 -0.875 L 0.90625 0 L 0.265625 0 L 0.265625 -2.390625 L 1.046875 -2.390625 C 1.691406 -2.390625 2.015625 -2.15625 2.015625 -1.6875 C 2.015625 -1.40625 1.878906 -1.191406 1.609375 -1.046875 L 2.3125 0 L 1.578125 0 L 1.078125 -0.875 Z M 0.90625 -1.359375 L 1.03125 -1.359375 C 1.257812 -1.359375 1.375 -1.457031 1.375 -1.65625 C 1.375 -1.820312 1.257812 -1.90625 1.03125 -1.90625 L 0.90625 -1.90625 Z M 0.90625 -1.359375 "/></g></g></g><g fill="#fefefe" fill-opacity="1"><g transform="translate(40.923528, 25.702308)"><g><path d="M 1.6875 0 L 0.265625 0 L 0.265625 -2.390625 L 1.6875 -2.390625 L 1.6875 -1.875 L 0.90625 -1.875 L 0.90625 -1.5 L 1.625 -1.5 L 1.625 -0.984375 L 0.90625 -0.984375 L 0.90625 -0.53125 L 1.6875 -0.53125 Z M 1.6875 0 "/></g></g></g><g fill="#fefefe" fill-opacity="1"><g transform="translate(21.740791, 28.804701)"><g><path d="M 0.296875 -1.28125 C 0.453125 -1.425781 0.640625 -1.5 0.859375 -1.5 C 1.078125 -1.5 1.265625 -1.425781 1.421875 -1.28125 C 1.578125 -1.132812 1.65625 -0.953125 1.65625 -0.734375 C 1.65625 -0.523438 1.578125 -0.347656 1.421875 -0.203125 C 1.265625 -0.0546875 1.078125 0.015625 0.859375 0.015625 C 0.640625 0.015625 0.453125 -0.0546875 0.296875 -0.203125 C 0.148438 -0.347656 0.078125 -0.523438 0.078125 -0.734375 C 0.078125 -0.953125 0.148438 -1.132812 0.296875 -1.28125 Z M 0.859375 -1.265625 C 0.710938 -1.265625 0.585938 -1.210938 0.484375 -1.109375 C 0.378906 -1.015625 0.328125 -0.890625 0.328125 -0.734375 C 0.328125 -0.585938 0.378906 -0.460938 0.484375 -0.359375 C 0.585938 -0.265625 0.710938 -0.21875 0.859375 -0.21875 C 1.003906 -0.21875 1.128906 -0.265625 1.234375 -0.359375 C 1.335938 -0.460938 1.390625 -0.585938 1.390625 -0.734375 C 1.390625 -0.890625 1.335938 -1.015625 1.234375 -1.109375 C 1.128906 -1.210938 1.003906 -1.265625 0.859375 -1.265625 Z M 0.859375 -1.265625 "/></g></g></g><g fill="#fefefe" fill-opacity="1"><g transform="translate(23.468015, 28.804701)"><g><path d="M 1.484375 0 L 1.234375 0 L 0.453125 -1.0625 L 0.453125 0 L 0.203125 0 L 0.203125 -1.484375 L 0.4375 -1.484375 L 1.234375 -0.421875 L 1.234375 -1.484375 L 1.484375 -1.484375 Z M 1.484375 0 "/></g></g></g><g fill="#fefefe" fill-opacity="1"><g transform="translate(25.156857, 28.804701)"><g><path d="M 0.453125 -0.234375 L 1.09375 -0.234375 L 1.09375 0 L 0.203125 0 L 0.203125 -1.484375 L 0.453125 -1.484375 Z M 0.453125 -0.234375 "/></g></g></g><g fill="#fefefe" fill-opacity="1"><g transform="translate(26.295544, 28.804701)"><g><path d="M 0.453125 0 L 0.203125 0 L 0.203125 -1.484375 L 0.453125 -1.484375 Z M 0.453125 0 "/></g></g></g><g fill="#fefefe" fill-opacity="1"><g transform="translate(26.939521, 28.804701)"><g><path d="M 1.484375 0 L 1.234375 0 L 0.453125 -1.0625 L 0.453125 0 L 0.203125 0 L 0.203125 -1.484375 L 0.4375 -1.484375 L 1.234375 -0.421875 L 1.234375 -1.484375 L 1.484375 -1.484375 Z M 1.484375 0 "/></g></g></g><g fill="#fefefe" fill-opacity="1"><g transform="translate(28.628362, 28.804701)"><g><path d="M 1.265625 -1.265625 L 0.453125 -1.265625 L 0.453125 -0.859375 L 1.171875 -0.859375 L 1.171875 -0.640625 L 0.453125 -0.640625 L 0.453125 -0.21875 L 1.28125 -0.21875 L 1.28125 0 L 0.203125 0 L 0.203125 -1.484375 L 1.265625 -1.484375 Z M 1.265625 -1.265625 "/></g></g></g><g fill="#fefefe" fill-opacity="1"><g transform="translate(30.027201, 28.804701)"><g/></g></g><g fill="#fefefe" fill-opacity="1"><g transform="translate(30.577353, 28.804701)"><g><path d="M 0.6875 -1.5 C 0.875 -1.5 1.046875 -1.445312 1.203125 -1.34375 L 1.09375 -1.125 C 0.945312 -1.21875 0.804688 -1.265625 0.671875 -1.265625 C 0.585938 -1.265625 0.523438 -1.25 0.484375 -1.21875 C 0.441406 -1.195312 0.421875 -1.160156 0.421875 -1.109375 C 0.421875 -1.054688 0.441406 -1.007812 0.484375 -0.96875 C 0.523438 -0.9375 0.570312 -0.910156 0.625 -0.890625 C 0.6875 -0.878906 0.75 -0.863281 0.8125 -0.84375 C 0.882812 -0.820312 0.953125 -0.796875 1.015625 -0.765625 C 1.078125 -0.734375 1.125 -0.6875 1.15625 -0.625 C 1.195312 -0.570312 1.21875 -0.503906 1.21875 -0.421875 C 1.21875 -0.285156 1.164062 -0.175781 1.0625 -0.09375 C 0.957031 -0.0195312 0.820312 0.015625 0.65625 0.015625 C 0.550781 0.015625 0.441406 -0.00390625 0.328125 -0.046875 C 0.222656 -0.0976562 0.132812 -0.160156 0.0625 -0.234375 L 0.15625 -0.4375 C 0.238281 -0.375 0.320312 -0.320312 0.40625 -0.28125 C 0.5 -0.25 0.585938 -0.234375 0.671875 -0.234375 C 0.753906 -0.234375 0.820312 -0.25 0.875 -0.28125 C 0.925781 -0.3125 0.953125 -0.351562 0.953125 -0.40625 C 0.953125 -0.457031 0.929688 -0.5 0.890625 -0.53125 C 0.847656 -0.570312 0.796875 -0.597656 0.734375 -0.609375 C 0.671875 -0.628906 0.601562 -0.648438 0.53125 -0.671875 C 0.46875 -0.691406 0.40625 -0.710938 0.34375 -0.734375 C 0.289062 -0.765625 0.242188 -0.804688 0.203125 -0.859375 C 0.160156 -0.921875 0.140625 -0.992188 0.140625 -1.078125 C 0.140625 -1.203125 0.1875 -1.300781 0.28125 -1.375 C 0.382812 -1.457031 0.519531 -1.5 0.6875 -1.5 Z M 0.6875 -1.5 "/></g></g></g><g fill="#fefefe" fill-opacity="1"><g transform="translate(31.90369, 28.804701)"><g><path d="M 1.21875 -1.265625 L 0.734375 -1.265625 L 0.734375 0 L 0.484375 0 L 0.484375 -1.265625 L 0.015625 -1.265625 L 0.015625 -1.484375 L 1.21875 -1.484375 Z M 1.21875 -1.265625 "/></g></g></g><g fill="#fefefe" fill-opacity="1"><g transform="translate(33.138335, 28.804701)"><g><path d="M 0.296875 -1.28125 C 0.453125 -1.425781 0.640625 -1.5 0.859375 -1.5 C 1.078125 -1.5 1.265625 -1.425781 1.421875 -1.28125 C 1.578125 -1.132812 1.65625 -0.953125 1.65625 -0.734375 C 1.65625 -0.523438 1.578125 -0.347656 1.421875 -0.203125 C 1.265625 -0.0546875 1.078125 0.015625 0.859375 0.015625 C 0.640625 0.015625 0.453125 -0.0546875 0.296875 -0.203125 C 0.148438 -0.347656 0.078125 -0.523438 0.078125 -0.734375 C 0.078125 -0.953125 0.148438 -1.132812 0.296875 -1.28125 Z M 0.859375 -1.265625 C 0.710938 -1.265625 0.585938 -1.210938 0.484375 -1.109375 C 0.378906 -1.015625 0.328125 -0.890625 0.328125 -0.734375 C 0.328125 -0.585938 0.378906 -0.460938 0.484375 -0.359375 C 0.585938 -0.265625 0.710938 -0.21875 0.859375 -0.21875 C 1.003906 -0.21875 1.128906 -0.265625 1.234375 -0.359375 C 1.335938 -0.460938 1.390625 -0.585938 1.390625 -0.734375 C 1.390625 -0.890625 1.335938 -1.015625 1.234375 -1.109375 C 1.128906 -1.210938 1.003906 -1.265625 0.859375 -1.265625 Z M 0.859375 -1.265625 "/></g></g></g><g fill="#fefefe" fill-opacity="1"><g transform="translate(34.86556, 28.804701)"><g><path d="M 1.140625 0 L 0.859375 -0.453125 C 0.847656 -0.453125 0.828125 -0.453125 0.796875 -0.453125 L 0.453125 -0.453125 L 0.453125 0 L 0.203125 0 L 0.203125 -1.484375 L 0.796875 -1.484375 C 0.984375 -1.484375 1.128906 -1.4375 1.234375 -1.34375 C 1.335938 -1.257812 1.390625 -1.140625 1.390625 -0.984375 C 1.390625 -0.859375 1.363281 -0.753906 1.3125 -0.671875 C 1.257812 -0.585938 1.1875 -0.53125 1.09375 -0.5 L 1.421875 0 Z M 0.453125 -0.671875 L 0.796875 -0.671875 C 1.035156 -0.671875 1.15625 -0.769531 1.15625 -0.96875 C 1.15625 -1.164062 1.035156 -1.265625 0.796875 -1.265625 L 0.453125 -1.265625 Z M 0.453125 -0.671875 "/></g></g></g><g fill="#fefefe" fill-opacity="1"><g transform="translate(36.407267, 28.804701)"><g><path d="M 1.265625 -1.265625 L 0.453125 -1.265625 L 0.453125 -0.859375 L 1.171875 -0.859375 L 1.171875 -0.640625 L 0.453125 -0.640625 L 0.453125 -0.21875 L 1.28125 -0.21875 L 1.28125 0 L 0.203125 0 L 0.203125 -1.484375 L 1.265625 -1.484375 Z M 1.265625 -1.265625 "/></g></g></g></svg>