<svg xmlns="http://www.w3.org/2000/svg" xmlns:xlink="http://www.w3.org/1999/xlink" width="500" zoomAndPan="magnify" viewBox="0 0 375 374.999991" height="500" preserveAspectRatio="xMidYMid meet" version="1.0"><defs><g/><clipPath id="9c5be1f5eb"><path d="M 93 137 L 177 137 L 177 247 L 93 247 Z M 93 137 " clip-rule="nonzero"/></clipPath><clipPath id="432cf7967d"><path d="M 62.84375 169.457031 L 133.796875 121.746094 L 190.292969 205.769531 L 119.34375 253.476562 Z M 62.84375 169.457031 " clip-rule="nonzero"/></clipPath><clipPath id="e7084c9ddf"><path d="M 62.84375 169.457031 L 133.796875 121.746094 L 190.292969 205.769531 L 119.34375 253.476562 Z M 62.84375 169.457031 " clip-rule="nonzero"/></clipPath><clipPath id="2d29b2a10a"><path d="M 119 181 L 139 181 L 139 202 L 119 202 Z M 119 181 " clip-rule="nonzero"/></clipPath><clipPath id="ac3d7b2b91"><path d="M 62.84375 169.457031 L 133.796875 121.746094 L 190.292969 205.769531 L 119.34375 253.476562 Z M 62.84375 169.457031 " clip-rule="nonzero"/></clipPath><clipPath id="128fde3ffd"><path d="M 62.84375 169.457031 L 133.796875 121.746094 L 190.292969 205.769531 L 119.34375 253.476562 Z M 62.84375 169.457031 " clip-rule="nonzero"/></clipPath><clipPath id="0aed23f6bb"><path d="M 128 204 L 132 204 L 132 208 L 128 208 Z M 128 204 " clip-rule="nonzero"/></clipPath><clipPath id="0b9e3b01cb"><path d="M 62.84375 169.457031 L 133.796875 121.746094 L 190.292969 205.769531 L 119.34375 253.476562 Z M 62.84375 169.457031 " clip-rule="nonzero"/></clipPath><clipPath id="2fc367a4f5"><path d="M 62.84375 169.457031 L 133.796875 121.746094 L 190.292969 205.769531 L 119.34375 253.476562 Z M 62.84375 169.457031 " clip-rule="nonzero"/></clipPath><clipPath id="c06b8263b2"><path d="M 142 185 L 146 185 L 146 189 L 142 189 Z M 142 185 " clip-rule="nonzero"/></clipPath><clipPath id="d7be46536b"><path d="M 62.84375 169.457031 L 133.796875 121.746094 L 190.292969 205.769531 L 119.34375 253.476562 Z M 62.84375 169.457031 " clip-rule="nonzero"/></clipPath><clipPath id="8e1351ee8e"><path d="M 62.84375 169.457031 L 133.796875 121.746094 L 190.292969 205.769531 L 119.34375 253.476562 Z M 62.84375 169.457031 " clip-rule="nonzero"/></clipPath></defs><g clip-path="url(#9c5be1f5eb)"><g clip-path="url(#432cf7967d)"><g clip-path="url(#e7084c9ddf)"><path fill="#030247" d="M 120.960938 214.246094 C 119.519531 212.90625 119.3125 210.6875 120.5 209.121094 L 124.25 204.078125 L 121.691406 202.183594 C 115.710938 197.734375 114.460938 189.246094 118.910156 183.265625 C 123.359375 177.289062 131.847656 176.035156 137.828125 180.484375 L 140.386719 182.378906 L 144.136719 177.339844 C 145.308594 175.757812 147.488281 175.316406 149.179688 176.304688 L 176.285156 192.046875 L 153.503906 151.511719 C 152.179688 149.160156 149.304688 148.175781 146.828125 149.210938 L 138.917969 152.546875 L 137.222656 148.53125 C 133.25 139.117188 122.382812 134.6875 112.960938 138.644531 C 103.546875 142.617188 99.117188 153.484375 103.074219 162.90625 L 104.769531 166.921875 L 96.863281 170.257812 C 94.371094 171.300781 93.066406 174.046875 93.828125 176.636719 L 113.128906 242.402344 C 114.050781 245.539062 117.507812 247.179688 120.53125 245.914062 L 144.160156 235.976562 Z M 142 159.832031 C 142.503906 161.03125 141.9375 162.414062 140.738281 162.917969 C 139.535156 163.421875 138.15625 162.859375 137.648438 161.660156 C 137.144531 160.457031 137.710938 159.074219 138.910156 158.570312 C 140.09375 158.078125 141.492188 158.628906 142 159.832031 Z M 107.464844 161.074219 C 104.527344 154.066406 107.8125 145.980469 114.824219 143.011719 C 121.835938 140.046875 129.921875 143.363281 132.886719 150.375 L 134.582031 154.390625 L 109.160156 165.089844 Z M 109.125 171.109375 C 110.328125 170.605469 111.707031 171.167969 112.210938 172.371094 C 112.71875 173.570312 112.152344 174.953125 110.953125 175.457031 C 109.75 175.960938 108.371094 175.398438 107.863281 174.195312 C 107.34375 173.007812 107.910156 171.625 109.125 171.109375 Z M 109.125 171.109375 " fill-opacity="1" fill-rule="nonzero"/></g></g></g><g clip-path="url(#2d29b2a10a)"><g clip-path="url(#ac3d7b2b91)"><g clip-path="url(#128fde3ffd)"><path fill="#030247" d="M 135.765625 183.246094 C 131.320312 179.9375 124.988281 180.859375 121.671875 185.328125 C 118.359375 189.769531 119.28125 196.105469 123.753906 199.421875 L 126.3125 201.316406 L 138.335938 185.160156 Z M 135.765625 183.246094 " fill-opacity="1" fill-rule="nonzero"/></g></g></g><g clip-path="url(#0aed23f6bb)"><g clip-path="url(#0b9e3b01cb)"><g clip-path="url(#2fc367a4f5)"><path fill="#030247" d="M 128.523438 205.125 C 127.957031 205.878906 128.105469 206.96875 128.886719 207.542969 C 129.640625 208.105469 130.730469 207.957031 131.300781 207.175781 C 131.867188 206.421875 131.71875 205.332031 130.9375 204.761719 C 130.183594 204.195312 129.09375 204.34375 128.523438 205.125 Z M 128.523438 205.125 " fill-opacity="1" fill-rule="nonzero"/></g></g></g><g clip-path="url(#c06b8263b2)"><g clip-path="url(#d7be46536b)"><g clip-path="url(#8e1351ee8e)"><path fill="#030247" d="M 145.375 188.242188 C 145.941406 187.488281 145.792969 186.398438 145.011719 185.824219 C 144.257812 185.257812 143.167969 185.410156 142.597656 186.191406 C 142.023438 186.96875 142.179688 188.035156 142.960938 188.605469 C 143.730469 189.160156 144.820312 189.011719 145.375 188.242188 Z M 145.375 188.242188 " fill-opacity="1" fill-rule="nonzero"/></g></g></g><g fill="#000000" fill-opacity="1"><g transform="translate(136.275048, 215.960196)"><g><path d="M 11.703125 -4.671875 C 11.703125 -3.710938 11.457031 -2.863281 10.96875 -2.125 C 10.488281 -1.382812 9.789062 -0.8125 8.875 -0.40625 C 7.96875 0 6.90625 0.203125 5.6875 0.203125 C 4.664062 0.203125 3.804688 0.132812 3.109375 0 C 2.410156 -0.144531 1.691406 -0.394531 0.953125 -0.75 L 0.953125 -4.453125 C 1.734375 -4.046875 2.550781 -3.726562 3.40625 -3.5 C 4.269531 -3.269531 5.054688 -3.15625 5.765625 -3.15625 C 6.378906 -3.15625 6.828125 -3.257812 7.109375 -3.46875 C 7.398438 -3.6875 7.546875 -3.96875 7.546875 -4.3125 C 7.546875 -4.519531 7.488281 -4.703125 7.375 -4.859375 C 7.257812 -5.015625 7.070312 -5.171875 6.8125 -5.328125 C 6.5625 -5.492188 5.882812 -5.828125 4.78125 -6.328125 C 3.78125 -6.773438 3.03125 -7.210938 2.53125 -7.640625 C 2.03125 -8.066406 1.65625 -8.554688 1.40625 -9.109375 C 1.164062 -9.671875 1.046875 -10.328125 1.046875 -11.078125 C 1.046875 -12.492188 1.5625 -13.597656 2.59375 -14.390625 C 3.625 -15.179688 5.039062 -15.578125 6.84375 -15.578125 C 8.425781 -15.578125 10.046875 -15.210938 11.703125 -14.484375 L 10.4375 -11.265625 C 9 -11.929688 7.757812 -12.265625 6.71875 -12.265625 C 6.175781 -12.265625 5.78125 -12.164062 5.53125 -11.96875 C 5.289062 -11.78125 5.171875 -11.546875 5.171875 -11.265625 C 5.171875 -10.972656 5.328125 -10.707031 5.640625 -10.46875 C 5.953125 -10.226562 6.796875 -9.789062 8.171875 -9.15625 C 9.492188 -8.5625 10.410156 -7.921875 10.921875 -7.234375 C 11.441406 -6.554688 11.703125 -5.703125 11.703125 -4.671875 Z M 11.703125 -4.671875 "/></g></g></g><g fill="#000000" fill-opacity="1"><g transform="translate(148.695179, 215.960196)"><g><path d="M 8.4375 0 L 4.28125 0 L 4.28125 -11.96875 L 0.53125 -11.96875 L 0.53125 -15.359375 L 12.171875 -15.359375 L 12.171875 -11.96875 L 8.4375 -11.96875 Z M 8.4375 0 "/></g></g></g><g fill="#000000" fill-opacity="1"><g transform="translate(161.409526, 215.960196)"><g><path d="M 5.8125 -5.59375 L 5.8125 0 L 1.65625 0 L 1.65625 -15.359375 L 6.6875 -15.359375 C 10.863281 -15.359375 12.953125 -13.847656 12.953125 -10.828125 C 12.953125 -9.046875 12.082031 -7.664062 10.34375 -6.6875 L 14.828125 0 L 10.109375 0 L 6.859375 -5.59375 Z M 5.8125 -8.703125 L 6.59375 -8.703125 C 8.039062 -8.703125 8.765625 -9.34375 8.765625 -10.625 C 8.765625 -11.6875 8.050781 -12.21875 6.625 -12.21875 L 5.8125 -12.21875 Z M 5.8125 -8.703125 "/></g></g></g><g fill="#000000" fill-opacity="1"><g transform="translate(175.973234, 215.960196)"><g><path d="M 1.65625 0 L 1.65625 -15.359375 L 5.828125 -15.359375 L 5.828125 0 Z M 1.65625 0 "/></g></g></g><g fill="#000000" fill-opacity="1"><g transform="translate(183.465242, 215.960196)"><g><path d="M 14.703125 -8 C 14.703125 -5.4375 13.992188 -3.460938 12.578125 -2.078125 C 11.171875 -0.691406 9.1875 0 6.625 0 L 1.65625 0 L 1.65625 -15.359375 L 6.96875 -15.359375 C 9.4375 -15.359375 11.34375 -14.726562 12.6875 -13.46875 C 14.03125 -12.207031 14.703125 -10.382812 14.703125 -8 Z M 10.390625 -7.859375 C 10.390625 -9.265625 10.109375 -10.304688 9.546875 -10.984375 C 8.992188 -11.671875 8.148438 -12.015625 7.015625 -12.015625 L 5.8125 -12.015625 L 5.8125 -3.40625 L 6.734375 -3.40625 C 7.992188 -3.40625 8.914062 -3.769531 9.5 -4.5 C 10.09375 -5.226562 10.390625 -6.347656 10.390625 -7.859375 Z M 10.390625 -7.859375 "/></g></g></g><g fill="#000000" fill-opacity="1"><g transform="translate(199.258353, 215.960196)"><g><path d="M 10.78125 0 L 1.65625 0 L 1.65625 -15.359375 L 10.78125 -15.359375 L 10.78125 -12.03125 L 5.8125 -12.03125 L 5.8125 -9.609375 L 10.40625 -9.609375 L 10.40625 -6.28125 L 5.8125 -6.28125 L 5.8125 -3.390625 L 10.78125 -3.390625 Z M 10.78125 0 "/></g></g></g><g fill="#000000" fill-opacity="1"><g transform="translate(211.069036, 215.960196)"><g/></g></g><g fill="#000000" fill-opacity="1"><g transform="translate(216.659146, 215.960196)"><g><path d="M 11.703125 -4.671875 C 11.703125 -3.710938 11.457031 -2.863281 10.96875 -2.125 C 10.488281 -1.382812 9.789062 -0.8125 8.875 -0.40625 C 7.96875 0 6.90625 0.203125 5.6875 0.203125 C 4.664062 0.203125 3.804688 0.132812 3.109375 0 C 2.410156 -0.144531 1.691406 -0.394531 0.953125 -0.75 L 0.953125 -4.453125 C 1.734375 -4.046875 2.550781 -3.726562 3.40625 -3.5 C 4.269531 -3.269531 5.054688 -3.15625 5.765625 -3.15625 C 6.378906 -3.15625 6.828125 -3.257812 7.109375 -3.46875 C 7.398438 -3.6875 7.546875 -3.96875 7.546875 -4.3125 C 7.546875 -4.519531 7.488281 -4.703125 7.375 -4.859375 C 7.257812 -5.015625 7.070312 -5.171875 6.8125 -5.328125 C 6.5625 -5.492188 5.882812 -5.828125 4.78125 -6.328125 C 3.78125 -6.773438 3.03125 -7.210938 2.53125 -7.640625 C 2.03125 -8.066406 1.65625 -8.554688 1.40625 -9.109375 C 1.164062 -9.671875 1.046875 -10.328125 1.046875 -11.078125 C 1.046875 -12.492188 1.5625 -13.597656 2.59375 -14.390625 C 3.625 -15.179688 5.039062 -15.578125 6.84375 -15.578125 C 8.425781 -15.578125 10.046875 -15.210938 11.703125 -14.484375 L 10.4375 -11.265625 C 9 -11.929688 7.757812 -12.265625 6.71875 -12.265625 C 6.175781 -12.265625 5.78125 -12.164062 5.53125 -11.96875 C 5.289062 -11.78125 5.171875 -11.546875 5.171875 -11.265625 C 5.171875 -10.972656 5.328125 -10.707031 5.640625 -10.46875 C 5.953125 -10.226562 6.796875 -9.789062 8.171875 -9.15625 C 9.492188 -8.5625 10.410156 -7.921875 10.921875 -7.234375 C 11.441406 -6.554688 11.703125 -5.703125 11.703125 -4.671875 Z M 11.703125 -4.671875 "/></g></g></g><g fill="#000000" fill-opacity="1"><g transform="translate(229.079277, 215.960196)"><g><path d="M 8.4375 0 L 4.28125 0 L 4.28125 -11.96875 L 0.53125 -11.96875 L 0.53125 -15.359375 L 12.171875 -15.359375 L 12.171875 -11.96875 L 8.4375 -11.96875 Z M 8.4375 0 "/></g></g></g><g fill="#000000" fill-opacity="1"><g transform="translate(241.793625, 215.960196)"><g><path d="M 16.03125 -7.703125 C 16.03125 -5.117188 15.394531 -3.15625 14.125 -1.8125 C 12.863281 -0.46875 11.007812 0.203125 8.5625 0.203125 C 6.15625 0.203125 4.304688 -0.46875 3.015625 -1.8125 C 1.734375 -3.164062 1.09375 -5.132812 1.09375 -7.71875 C 1.09375 -10.28125 1.726562 -12.234375 3 -13.578125 C 4.28125 -14.921875 6.140625 -15.59375 8.578125 -15.59375 C 11.023438 -15.59375 12.878906 -14.925781 14.140625 -13.59375 C 15.398438 -12.257812 16.03125 -10.296875 16.03125 -7.703125 Z M 5.46875 -7.703125 C 5.46875 -4.734375 6.5 -3.25 8.5625 -3.25 C 9.613281 -3.25 10.390625 -3.609375 10.890625 -4.328125 C 11.398438 -5.046875 11.65625 -6.171875 11.65625 -7.703125 C 11.65625 -9.234375 11.394531 -10.363281 10.875 -11.09375 C 10.363281 -11.832031 9.597656 -12.203125 8.578125 -12.203125 C 6.503906 -12.203125 5.46875 -10.703125 5.46875 -7.703125 Z M 5.46875 -7.703125 "/></g></g></g><g fill="#000000" fill-opacity="1"><g transform="translate(258.942233, 215.960196)"><g><path d="M 5.8125 -5.59375 L 5.8125 0 L 1.65625 0 L 1.65625 -15.359375 L 6.6875 -15.359375 C 10.863281 -15.359375 12.953125 -13.847656 12.953125 -10.828125 C 12.953125 -9.046875 12.082031 -7.664062 10.34375 -6.6875 L 14.828125 0 L 10.109375 0 L 6.859375 -5.59375 Z M 5.8125 -8.703125 L 6.59375 -8.703125 C 8.039062 -8.703125 8.765625 -9.34375 8.765625 -10.625 C 8.765625 -11.6875 8.050781 -12.21875 6.625 -12.21875 L 5.8125 -12.21875 Z M 5.8125 -8.703125 "/></g></g></g><g fill="#000000" fill-opacity="1"><g transform="translate(273.50594, 215.960196)"><g><path d="M 10.78125 0 L 1.65625 0 L 1.65625 -15.359375 L 10.78125 -15.359375 L 10.78125 -12.03125 L 5.8125 -12.03125 L 5.8125 -9.609375 L 10.40625 -9.609375 L 10.40625 -6.28125 L 5.8125 -6.28125 L 5.8125 -3.390625 L 10.78125 -3.390625 Z M 10.78125 0 "/></g></g></g><g fill="#000000" fill-opacity="1"><g transform="translate(154.698336, 234.84413)"><g><path d="M 2.09375 -8.953125 C 3.15625 -9.960938 4.46875 -10.46875 6.03125 -10.46875 C 7.59375 -10.46875 8.90625 -9.960938 9.96875 -8.953125 C 11.03125 -7.953125 11.5625 -6.707031 11.5625 -5.21875 C 11.5625 -3.726562 11.03125 -2.472656 9.96875 -1.453125 C 8.90625 -0.429688 7.59375 0.078125 6.03125 0.078125 C 4.46875 0.078125 3.15625 -0.429688 2.09375 -1.453125 C 1.03125 -2.472656 0.5 -3.726562 0.5 -5.21875 C 0.5 -6.707031 1.03125 -7.953125 2.09375 -8.953125 Z M 6.046875 -8.890625 C 5.015625 -8.890625 4.128906 -8.535156 3.390625 -7.828125 C 2.660156 -7.117188 2.296875 -6.242188 2.296875 -5.203125 C 2.296875 -4.171875 2.664062 -3.296875 3.40625 -2.578125 C 4.144531 -1.859375 5.023438 -1.5 6.046875 -1.5 C 7.066406 -1.5 7.9375 -1.859375 8.65625 -2.578125 C 9.382812 -3.296875 9.75 -4.171875 9.75 -5.203125 C 9.75 -6.242188 9.382812 -7.117188 8.65625 -7.828125 C 7.9375 -8.535156 7.066406 -8.890625 6.046875 -8.890625 Z M 6.046875 -8.890625 "/></g></g></g><g fill="#000000" fill-opacity="1"><g transform="translate(166.75915, 234.84413)"><g><path d="M 10.40625 0 L 8.6875 0 L 3.125 -7.46875 L 3.125 0 L 1.375 0 L 1.375 -10.421875 L 3.09375 -10.421875 L 8.6875 -2.9375 L 8.6875 -10.421875 L 10.40625 -10.421875 Z M 10.40625 0 "/></g></g></g><g fill="#000000" fill-opacity="1"><g transform="translate(178.551946, 234.84413)"><g><path d="M 3.125 -1.59375 L 7.640625 -1.59375 L 7.640625 0 L 1.375 0 L 1.375 -10.421875 L 3.125 -10.421875 Z M 3.125 -1.59375 "/></g></g></g><g fill="#000000" fill-opacity="1"><g transform="translate(186.503141, 234.84413)"><g><path d="M 3.125 0 L 1.375 0 L 1.375 -10.421875 L 3.125 -10.421875 Z M 3.125 0 "/></g></g></g><g fill="#000000" fill-opacity="1"><g transform="translate(190.999887, 234.84413)"><g><path d="M 10.40625 0 L 8.6875 0 L 3.125 -7.46875 L 3.125 0 L 1.375 0 L 1.375 -10.421875 L 3.09375 -10.421875 L 8.6875 -2.9375 L 8.6875 -10.421875 L 10.40625 -10.421875 Z M 10.40625 0 "/></g></g></g><g fill="#000000" fill-opacity="1"><g transform="translate(202.792683, 234.84413)"><g><path d="M 8.8125 -8.84375 L 3.125 -8.84375 L 3.125 -6.03125 L 8.21875 -6.03125 L 8.21875 -4.453125 L 3.125 -4.453125 L 3.125 -1.578125 L 9 -1.578125 L 9 0 L 1.375 0 L 1.375 -10.421875 L 8.8125 -10.421875 Z M 8.8125 -8.84375 "/></g></g></g><g fill="#000000" fill-opacity="1"><g transform="translate(212.560452, 234.84413)"><g/></g></g><g fill="#000000" fill-opacity="1"><g transform="translate(216.40204, 234.84413)"><g><path d="M 4.796875 -10.5 C 6.140625 -10.5 7.351562 -10.140625 8.4375 -9.421875 L 7.71875 -7.875 C 6.65625 -8.519531 5.632812 -8.84375 4.65625 -8.84375 C 4.132812 -8.84375 3.722656 -8.75 3.421875 -8.5625 C 3.117188 -8.375 2.96875 -8.101562 2.96875 -7.75 C 2.96875 -7.40625 3.101562 -7.109375 3.375 -6.859375 C 3.65625 -6.617188 4.003906 -6.441406 4.421875 -6.328125 C 4.835938 -6.222656 5.285156 -6.082031 5.765625 -5.90625 C 6.253906 -5.726562 6.707031 -5.539062 7.125 -5.34375 C 7.550781 -5.15625 7.898438 -4.851562 8.171875 -4.4375 C 8.441406 -4.03125 8.578125 -3.535156 8.578125 -2.953125 C 8.578125 -2.035156 8.210938 -1.300781 7.484375 -0.75 C 6.753906 -0.207031 5.804688 0.0625 4.640625 0.0625 C 3.847656 0.0625 3.078125 -0.0820312 2.328125 -0.375 C 1.585938 -0.675781 0.941406 -1.082031 0.390625 -1.59375 L 1.140625 -3.109375 C 1.671875 -2.617188 2.25 -2.242188 2.875 -1.984375 C 3.507812 -1.722656 4.109375 -1.59375 4.671875 -1.59375 C 5.285156 -1.59375 5.765625 -1.703125 6.109375 -1.921875 C 6.453125 -2.148438 6.625 -2.460938 6.625 -2.859375 C 6.625 -3.210938 6.484375 -3.507812 6.203125 -3.75 C 5.929688 -4 5.585938 -4.179688 5.171875 -4.296875 C 4.753906 -4.410156 4.300781 -4.546875 3.8125 -4.703125 C 3.320312 -4.867188 2.867188 -5.046875 2.453125 -5.234375 C 2.035156 -5.421875 1.6875 -5.71875 1.40625 -6.125 C 1.132812 -6.53125 1 -7.019531 1 -7.59375 C 1 -8.476562 1.34375 -9.179688 2.03125 -9.703125 C 2.726562 -10.234375 3.648438 -10.5 4.796875 -10.5 Z M 4.796875 -10.5 "/></g></g></g><g fill="#000000" fill-opacity="1"><g transform="translate(225.66355, 234.84413)"><g><path d="M 8.484375 -8.84375 L 5.1875 -8.84375 L 5.1875 0 L 3.421875 0 L 3.421875 -8.84375 L 0.140625 -8.84375 L 0.140625 -10.421875 L 8.484375 -10.421875 Z M 8.484375 -8.84375 "/></g></g></g><g fill="#000000" fill-opacity="1"><g transform="translate(234.284798, 234.84413)"><g><path d="M 2.09375 -8.953125 C 3.15625 -9.960938 4.46875 -10.46875 6.03125 -10.46875 C 7.59375 -10.46875 8.90625 -9.960938 9.96875 -8.953125 C 11.03125 -7.953125 11.5625 -6.707031 11.5625 -5.21875 C 11.5625 -3.726562 11.03125 -2.472656 9.96875 -1.453125 C 8.90625 -0.429688 7.59375 0.078125 6.03125 0.078125 C 4.46875 0.078125 3.15625 -0.429688 2.09375 -1.453125 C 1.03125 -2.472656 0.5 -3.726562 0.5 -5.21875 C 0.5 -6.707031 1.03125 -7.953125 2.09375 -8.953125 Z M 6.046875 -8.890625 C 5.015625 -8.890625 4.128906 -8.535156 3.390625 -7.828125 C 2.660156 -7.117188 2.296875 -6.242188 2.296875 -5.203125 C 2.296875 -4.171875 2.664062 -3.296875 3.40625 -2.578125 C 4.144531 -1.859375 5.023438 -1.5 6.046875 -1.5 C 7.066406 -1.5 7.9375 -1.859375 8.65625 -2.578125 C 9.382812 -3.296875 9.75 -4.171875 9.75 -5.203125 C 9.75 -6.242188 9.382812 -7.117188 8.65625 -7.828125 C 7.9375 -8.535156 7.066406 -8.890625 6.046875 -8.890625 Z M 6.046875 -8.890625 "/></g></g></g><g fill="#000000" fill-opacity="1"><g transform="translate(246.345612, 234.84413)"><g><path d="M 7.984375 0 L 6.078125 -3.15625 C 5.972656 -3.144531 5.8125 -3.140625 5.59375 -3.140625 L 3.125 -3.140625 L 3.125 0 L 1.375 0 L 1.375 -10.421875 L 5.59375 -10.421875 C 6.925781 -10.421875 7.957031 -10.109375 8.6875 -9.484375 C 9.425781 -8.867188 9.796875 -7.992188 9.796875 -6.859375 C 9.796875 -6.023438 9.609375 -5.320312 9.234375 -4.75 C 8.867188 -4.175781 8.335938 -3.753906 7.640625 -3.484375 L 9.984375 0 Z M 3.125 -4.71875 L 5.59375 -4.71875 C 7.28125 -4.71875 8.125 -5.414062 8.125 -6.8125 C 8.125 -8.164062 7.28125 -8.84375 5.59375 -8.84375 L 3.125 -8.84375 Z M 3.125 -4.71875 "/></g></g></g><g fill="#000000" fill-opacity="1"><g transform="translate(257.111006, 234.84413)"><g><path d="M 8.8125 -8.84375 L 3.125 -8.84375 L 3.125 -6.03125 L 8.21875 -6.03125 L 8.21875 -4.453125 L 3.125 -4.453125 L 3.125 -1.578125 L 9 -1.578125 L 9 0 L 1.375 0 L 1.375 -10.421875 L 8.8125 -10.421875 Z M 8.8125 -8.84375 "/></g></g></g></svg>